<mxfile host="app.diagrams.net" modified="2021-04-28T10:13:27.700Z" agent="5.0 (X11)" etag="gqq7prHngGZL8trT6obn" version="14.6.6" type="github">
  <diagram name="Page-1" id="5f0bae14-7c28-e335-631c-24af17079c00">
    <mxGraphModel dx="696" dy="351" grid="1" gridSize="10" guides="1" tooltips="1" connect="1" arrows="1" fold="1" page="1" pageScale="1" pageWidth="1100" pageHeight="850" background="#ffffff" math="0" shadow="0">
      <root>
        <mxCell id="0" />
        <mxCell id="1" parent="0" />
        <mxCell id="7hVWozrfAJZLWaMvnfx6-36" value="&lt;font size=&quot;1&quot;&gt;&lt;b style=&quot;font-size: 15px&quot;&gt;Project Management System&lt;/b&gt;&lt;/font&gt;" style="html=1;dropTarget=0;verticalAlign=top;" vertex="1" parent="1">
          <mxGeometry x="130" y="30" width="840" height="620" as="geometry" />
        </mxCell>
        <mxCell id="7hVWozrfAJZLWaMvnfx6-37" value="" style="shape=module;jettyWidth=8;jettyHeight=4;" vertex="1" parent="7hVWozrfAJZLWaMvnfx6-36">
          <mxGeometry x="1" width="20" height="20" relative="1" as="geometry">
            <mxPoint x="-27" y="7" as="offset" />
          </mxGeometry>
        </mxCell>
        <mxCell id="7hVWozrfAJZLWaMvnfx6-3" value="«subsystem»&lt;b&gt; Archive&lt;/b&gt;" style="html=1;dropTarget=0;" vertex="1" parent="1">
          <mxGeometry x="690" y="95" width="220" height="50" as="geometry" />
        </mxCell>
        <mxCell id="7hVWozrfAJZLWaMvnfx6-4" value="" style="shape=module;jettyWidth=8;jettyHeight=4;" vertex="1" parent="7hVWozrfAJZLWaMvnfx6-3">
          <mxGeometry x="1" width="20" height="20" relative="1" as="geometry">
            <mxPoint x="-27" y="7" as="offset" />
          </mxGeometry>
        </mxCell>
        <mxCell id="7hVWozrfAJZLWaMvnfx6-5" value="" style="whiteSpace=wrap;html=1;" vertex="1" parent="1">
          <mxGeometry x="690" y="145" width="220" height="160" as="geometry" />
        </mxCell>
        <mxCell id="7hVWozrfAJZLWaMvnfx6-46" style="edgeStyle=orthogonalEdgeStyle;rounded=0;orthogonalLoop=1;jettySize=auto;html=1;entryX=0;entryY=0.5;entryDx=0;entryDy=0;endArrow=open;endFill=0;startArrow=none;" edge="1" parent="1" source="7hVWozrfAJZLWaMvnfx6-47" target="7hVWozrfAJZLWaMvnfx6-44">
          <mxGeometry relative="1" as="geometry">
            <Array as="points" />
          </mxGeometry>
        </mxCell>
        <mxCell id="7hVWozrfAJZLWaMvnfx6-12" value="&lt;b&gt;:Authentication&lt;/b&gt;&lt;br&gt;&lt;b&gt;&lt;/b&gt;" style="html=1;dropTarget=0;" vertex="1" parent="1">
          <mxGeometry x="710" y="165" width="180" height="50" as="geometry" />
        </mxCell>
        <mxCell id="7hVWozrfAJZLWaMvnfx6-13" value="" style="shape=module;jettyWidth=8;jettyHeight=4;" vertex="1" parent="7hVWozrfAJZLWaMvnfx6-12">
          <mxGeometry x="1" width="20" height="20" relative="1" as="geometry">
            <mxPoint x="-27" y="7" as="offset" />
          </mxGeometry>
        </mxCell>
        <mxCell id="7hVWozrfAJZLWaMvnfx6-14" value="&lt;b&gt;:ReportGenerator&lt;/b&gt;" style="html=1;dropTarget=0;" vertex="1" parent="1">
          <mxGeometry x="710" y="230" width="180" height="50" as="geometry" />
        </mxCell>
        <mxCell id="7hVWozrfAJZLWaMvnfx6-15" value="" style="shape=module;jettyWidth=8;jettyHeight=4;" vertex="1" parent="7hVWozrfAJZLWaMvnfx6-14">
          <mxGeometry x="1" width="20" height="20" relative="1" as="geometry">
            <mxPoint x="-27" y="7" as="offset" />
          </mxGeometry>
        </mxCell>
        <mxCell id="7hVWozrfAJZLWaMvnfx6-18" value="«subsystem»&lt;b&gt; Workspace&lt;/b&gt;" style="html=1;dropTarget=0;" vertex="1" parent="1">
          <mxGeometry x="150" y="95" width="250" height="50" as="geometry" />
        </mxCell>
        <mxCell id="7hVWozrfAJZLWaMvnfx6-19" value="" style="shape=module;jettyWidth=8;jettyHeight=4;" vertex="1" parent="7hVWozrfAJZLWaMvnfx6-18">
          <mxGeometry x="1" width="20" height="20" relative="1" as="geometry">
            <mxPoint x="-27" y="7" as="offset" />
          </mxGeometry>
        </mxCell>
        <mxCell id="7hVWozrfAJZLWaMvnfx6-20" value="" style="whiteSpace=wrap;html=1;" vertex="1" parent="1">
          <mxGeometry x="150" y="145" width="250" height="160" as="geometry" />
        </mxCell>
        <mxCell id="7hVWozrfAJZLWaMvnfx6-21" value="&lt;b&gt;:Project&lt;/b&gt;" style="html=1;dropTarget=0;" vertex="1" parent="1">
          <mxGeometry x="180" y="165" width="180" height="50" as="geometry" />
        </mxCell>
        <mxCell id="7hVWozrfAJZLWaMvnfx6-22" value="" style="shape=module;jettyWidth=8;jettyHeight=4;" vertex="1" parent="7hVWozrfAJZLWaMvnfx6-21">
          <mxGeometry x="1" width="20" height="20" relative="1" as="geometry">
            <mxPoint x="-27" y="7" as="offset" />
          </mxGeometry>
        </mxCell>
        <mxCell id="7hVWozrfAJZLWaMvnfx6-23" value="&lt;b&gt;:Task&lt;/b&gt;" style="html=1;dropTarget=0;" vertex="1" parent="1">
          <mxGeometry x="180" y="230" width="180" height="50" as="geometry" />
        </mxCell>
        <mxCell id="7hVWozrfAJZLWaMvnfx6-24" value="" style="shape=module;jettyWidth=8;jettyHeight=4;" vertex="1" parent="7hVWozrfAJZLWaMvnfx6-23">
          <mxGeometry x="1" width="20" height="20" relative="1" as="geometry">
            <mxPoint x="-27" y="7" as="offset" />
          </mxGeometry>
        </mxCell>
        <mxCell id="7hVWozrfAJZLWaMvnfx6-27" value="«subsystem»&lt;b&gt; Accounting&lt;/b&gt;" style="html=1;dropTarget=0;" vertex="1" parent="1">
          <mxGeometry x="430" y="360" width="220" height="50" as="geometry" />
        </mxCell>
        <mxCell id="7hVWozrfAJZLWaMvnfx6-28" value="" style="shape=module;jettyWidth=8;jettyHeight=4;" vertex="1" parent="7hVWozrfAJZLWaMvnfx6-27">
          <mxGeometry x="1" width="20" height="20" relative="1" as="geometry">
            <mxPoint x="-27" y="7" as="offset" />
          </mxGeometry>
        </mxCell>
        <mxCell id="7hVWozrfAJZLWaMvnfx6-29" value="" style="whiteSpace=wrap;html=1;" vertex="1" parent="1">
          <mxGeometry x="430" y="410" width="220" height="160" as="geometry" />
        </mxCell>
        <mxCell id="7hVWozrfAJZLWaMvnfx6-30" value="&lt;b&gt;:Funds&lt;/b&gt;" style="html=1;dropTarget=0;" vertex="1" parent="1">
          <mxGeometry x="450" y="430" width="180" height="50" as="geometry" />
        </mxCell>
        <mxCell id="7hVWozrfAJZLWaMvnfx6-31" value="" style="shape=module;jettyWidth=8;jettyHeight=4;" vertex="1" parent="7hVWozrfAJZLWaMvnfx6-30">
          <mxGeometry x="1" width="20" height="20" relative="1" as="geometry">
            <mxPoint x="-27" y="7" as="offset" />
          </mxGeometry>
        </mxCell>
        <mxCell id="7hVWozrfAJZLWaMvnfx6-61" style="edgeStyle=orthogonalEdgeStyle;rounded=0;orthogonalLoop=1;jettySize=auto;html=1;endArrow=open;endFill=0;entryX=1;entryY=0.5;entryDx=0;entryDy=0;exitX=1;exitY=0.5;exitDx=0;exitDy=0;" edge="1" parent="1" source="7hVWozrfAJZLWaMvnfx6-32" target="7hVWozrfAJZLWaMvnfx6-36">
          <mxGeometry relative="1" as="geometry">
            <Array as="points">
              <mxPoint x="770" y="525" />
              <mxPoint x="770" y="410" />
              <mxPoint x="970" y="410" />
            </Array>
          </mxGeometry>
        </mxCell>
        <mxCell id="7hVWozrfAJZLWaMvnfx6-32" value="&lt;b&gt;:CostCentre&lt;/b&gt;" style="html=1;dropTarget=0;" vertex="1" parent="1">
          <mxGeometry x="450" y="500" width="180" height="50" as="geometry" />
        </mxCell>
        <mxCell id="7hVWozrfAJZLWaMvnfx6-33" value="" style="shape=module;jettyWidth=8;jettyHeight=4;" vertex="1" parent="7hVWozrfAJZLWaMvnfx6-32">
          <mxGeometry x="1" width="20" height="20" relative="1" as="geometry">
            <mxPoint x="-27" y="7" as="offset" />
          </mxGeometry>
        </mxCell>
        <mxCell id="7hVWozrfAJZLWaMvnfx6-38" value="&lt;div&gt;«subsystem»&lt;b&gt;&lt;br&gt;&lt;/b&gt;&lt;/div&gt;&lt;div&gt;&lt;b&gt;Personnel Database&lt;/b&gt;&lt;/div&gt;" style="html=1;dropTarget=0;" vertex="1" parent="1">
          <mxGeometry x="1160" y="120" width="190" height="50" as="geometry" />
        </mxCell>
        <mxCell id="7hVWozrfAJZLWaMvnfx6-39" value="" style="shape=module;jettyWidth=8;jettyHeight=4;" vertex="1" parent="7hVWozrfAJZLWaMvnfx6-38">
          <mxGeometry x="1" width="20" height="20" relative="1" as="geometry">
            <mxPoint x="-27" y="7" as="offset" />
          </mxGeometry>
        </mxCell>
        <mxCell id="7hVWozrfAJZLWaMvnfx6-41" value="" style="shape=requiredInterface;html=1;verticalLabelPosition=bottom;direction=west;" vertex="1" parent="1">
          <mxGeometry x="1040" y="205" width="10" height="20" as="geometry" />
        </mxCell>
        <mxCell id="7hVWozrfAJZLWaMvnfx6-43" value="" style="edgeStyle=orthogonalEdgeStyle;rounded=0;orthogonalLoop=1;jettySize=auto;html=1;entryX=1;entryY=0.5;entryDx=0;entryDy=0;endArrow=none;entryPerimeter=0;" edge="1" parent="1" source="7hVWozrfAJZLWaMvnfx6-38" target="7hVWozrfAJZLWaMvnfx6-41">
          <mxGeometry relative="1" as="geometry">
            <mxPoint x="1160" y="145" as="sourcePoint" />
            <mxPoint x="970" y="220" as="targetPoint" />
            <Array as="points">
              <mxPoint x="1090" y="145" />
              <mxPoint x="1090" y="215" />
            </Array>
          </mxGeometry>
        </mxCell>
        <mxCell id="7hVWozrfAJZLWaMvnfx6-44" value="" style="rounded=0;whiteSpace=wrap;html=1;align=right;" vertex="1" parent="1">
          <mxGeometry x="970" y="210" width="10" height="10" as="geometry" />
        </mxCell>
        <mxCell id="7hVWozrfAJZLWaMvnfx6-45" value="" style="edgeStyle=orthogonalEdgeStyle;rounded=0;orthogonalLoop=1;jettySize=auto;html=1;entryX=1;entryY=0.5;entryDx=0;entryDy=0;startArrow=none;endArrow=none;endFill=0;" edge="1" parent="1" source="7hVWozrfAJZLWaMvnfx6-41" target="7hVWozrfAJZLWaMvnfx6-44">
          <mxGeometry relative="1" as="geometry">
            <mxPoint x="1040" y="220" as="sourcePoint" />
            <mxPoint x="970" y="220" as="targetPoint" />
            <Array as="points">
              <mxPoint x="990" y="215" />
              <mxPoint x="990" y="215" />
            </Array>
          </mxGeometry>
        </mxCell>
        <mxCell id="7hVWozrfAJZLWaMvnfx6-49" value="Account" style="edgeLabel;html=1;align=center;verticalAlign=middle;resizable=0;points=[];" vertex="1" connectable="0" parent="7hVWozrfAJZLWaMvnfx6-45">
          <mxGeometry x="-0.0853" relative="1" as="geometry">
            <mxPoint as="offset" />
          </mxGeometry>
        </mxCell>
        <mxCell id="7hVWozrfAJZLWaMvnfx6-47" value="" style="shape=requiredInterface;html=1;verticalLabelPosition=bottom;direction=west;" vertex="1" parent="1">
          <mxGeometry x="950" y="205" width="10" height="20" as="geometry" />
        </mxCell>
        <mxCell id="7hVWozrfAJZLWaMvnfx6-48" value="" style="edgeStyle=orthogonalEdgeStyle;rounded=0;orthogonalLoop=1;jettySize=auto;html=1;entryX=1;entryY=0.5;entryDx=0;entryDy=0;endArrow=none;endFill=0;exitX=1;exitY=0.5;exitDx=0;exitDy=0;entryPerimeter=0;" edge="1" parent="1" source="7hVWozrfAJZLWaMvnfx6-12" target="7hVWozrfAJZLWaMvnfx6-47">
          <mxGeometry relative="1" as="geometry">
            <mxPoint x="890" y="215" as="sourcePoint" />
            <mxPoint x="970" y="215" as="targetPoint" />
            <Array as="points" />
          </mxGeometry>
        </mxCell>
        <mxCell id="7hVWozrfAJZLWaMvnfx6-50" value="Account" style="edgeLabel;html=1;align=center;verticalAlign=middle;resizable=0;points=[];" vertex="1" connectable="0" parent="7hVWozrfAJZLWaMvnfx6-48">
          <mxGeometry x="-0.2093" y="1" relative="1" as="geometry">
            <mxPoint as="offset" />
          </mxGeometry>
        </mxCell>
        <mxCell id="7hVWozrfAJZLWaMvnfx6-59" style="edgeStyle=orthogonalEdgeStyle;rounded=0;orthogonalLoop=1;jettySize=auto;html=1;entryX=0;entryY=0.5;entryDx=0;entryDy=0;entryPerimeter=0;endArrow=open;endFill=0;" edge="1" parent="1" source="7hVWozrfAJZLWaMvnfx6-51" target="7hVWozrfAJZLWaMvnfx6-54">
          <mxGeometry relative="1" as="geometry" />
        </mxCell>
        <mxCell id="7hVWozrfAJZLWaMvnfx6-51" value="&lt;div&gt;«subsystem»&lt;b&gt;&lt;br&gt;&lt;/b&gt;&lt;/div&gt;&lt;div&gt;&lt;b&gt;Account management system&lt;/b&gt;&lt;/div&gt;" style="html=1;dropTarget=0;" vertex="1" parent="1">
          <mxGeometry x="1160" y="400" width="190" height="50" as="geometry" />
        </mxCell>
        <mxCell id="7hVWozrfAJZLWaMvnfx6-52" value="" style="shape=module;jettyWidth=8;jettyHeight=4;" vertex="1" parent="7hVWozrfAJZLWaMvnfx6-51">
          <mxGeometry x="1" width="20" height="20" relative="1" as="geometry">
            <mxPoint x="-27" y="7" as="offset" />
          </mxGeometry>
        </mxCell>
        <mxCell id="7hVWozrfAJZLWaMvnfx6-53" style="edgeStyle=orthogonalEdgeStyle;rounded=0;orthogonalLoop=1;jettySize=auto;html=1;entryX=0;entryY=0.5;entryDx=0;entryDy=0;endArrow=open;endFill=0;startArrow=none;" edge="1" source="7hVWozrfAJZLWaMvnfx6-58" target="7hVWozrfAJZLWaMvnfx6-55" parent="1">
          <mxGeometry relative="1" as="geometry">
            <Array as="points" />
          </mxGeometry>
        </mxCell>
        <mxCell id="7hVWozrfAJZLWaMvnfx6-54" value="" style="shape=requiredInterface;html=1;verticalLabelPosition=bottom;direction=west;" vertex="1" parent="1">
          <mxGeometry x="1100" y="420" width="10" height="20" as="geometry" />
        </mxCell>
        <mxCell id="7hVWozrfAJZLWaMvnfx6-55" value="" style="rounded=0;whiteSpace=wrap;html=1;align=right;" vertex="1" parent="1">
          <mxGeometry x="1030" y="425" width="10" height="10" as="geometry" />
        </mxCell>
        <mxCell id="7hVWozrfAJZLWaMvnfx6-56" value="" style="edgeStyle=orthogonalEdgeStyle;rounded=0;orthogonalLoop=1;jettySize=auto;html=1;entryX=1;entryY=0.5;entryDx=0;entryDy=0;startArrow=none;endArrow=none;endFill=0;" edge="1" source="7hVWozrfAJZLWaMvnfx6-54" target="7hVWozrfAJZLWaMvnfx6-55" parent="1">
          <mxGeometry relative="1" as="geometry">
            <mxPoint x="1100" y="435" as="sourcePoint" />
            <mxPoint x="1030" y="435" as="targetPoint" />
            <Array as="points">
              <mxPoint x="1050" y="430" />
              <mxPoint x="1050" y="430" />
            </Array>
          </mxGeometry>
        </mxCell>
        <mxCell id="7hVWozrfAJZLWaMvnfx6-57" value="Account" style="edgeLabel;html=1;align=center;verticalAlign=middle;resizable=0;points=[];" vertex="1" connectable="0" parent="7hVWozrfAJZLWaMvnfx6-56">
          <mxGeometry x="-0.0853" relative="1" as="geometry">
            <mxPoint as="offset" />
          </mxGeometry>
        </mxCell>
        <mxCell id="7hVWozrfAJZLWaMvnfx6-60" style="edgeStyle=orthogonalEdgeStyle;rounded=0;orthogonalLoop=1;jettySize=auto;html=1;endArrow=open;endFill=0;" edge="1" parent="1" source="7hVWozrfAJZLWaMvnfx6-58" target="7hVWozrfAJZLWaMvnfx6-36">
          <mxGeometry relative="1" as="geometry" />
        </mxCell>
        <mxCell id="7hVWozrfAJZLWaMvnfx6-58" value="" style="shape=requiredInterface;html=1;verticalLabelPosition=bottom;direction=west;" vertex="1" parent="1">
          <mxGeometry x="1010" y="420" width="10" height="20" as="geometry" />
        </mxCell>
        <mxCell id="7hVWozrfAJZLWaMvnfx6-69" style="edgeStyle=orthogonalEdgeStyle;rounded=0;orthogonalLoop=1;jettySize=auto;html=1;entryX=0.997;entryY=0.283;entryDx=0;entryDy=0;entryPerimeter=0;endArrow=none;endFill=0;" edge="1" parent="1" source="7hVWozrfAJZLWaMvnfx6-68" target="7hVWozrfAJZLWaMvnfx6-20">
          <mxGeometry relative="1" as="geometry">
            <mxPoint x="390" y="190" as="targetPoint" />
            <Array as="points">
              <mxPoint x="390" y="190" />
              <mxPoint x="390" y="190" />
            </Array>
          </mxGeometry>
        </mxCell>
        <mxCell id="7hVWozrfAJZLWaMvnfx6-68" value="" style="rounded=0;whiteSpace=wrap;html=1;align=right;" vertex="1" parent="1">
          <mxGeometry x="360" y="185" width="10" height="10" as="geometry" />
        </mxCell>
        <mxCell id="7hVWozrfAJZLWaMvnfx6-71" value="" style="rounded=0;whiteSpace=wrap;html=1;align=right;" vertex="1" parent="1">
          <mxGeometry x="400" y="185" width="10" height="10" as="geometry" />
        </mxCell>
        <mxCell id="7hVWozrfAJZLWaMvnfx6-75" value="" style="rounded=0;whiteSpace=wrap;html=1;align=right;" vertex="1" parent="1">
          <mxGeometry x="440" y="520" width="10" height="10" as="geometry" />
        </mxCell>
        <mxCell id="7hVWozrfAJZLWaMvnfx6-78" style="edgeStyle=orthogonalEdgeStyle;rounded=0;orthogonalLoop=1;jettySize=auto;html=1;endArrow=none;endFill=0;exitX=1;exitY=0.5;exitDx=0;exitDy=0;entryX=-0.109;entryY=0.574;entryDx=0;entryDy=0;entryPerimeter=0;" edge="1" parent="1" source="7hVWozrfAJZLWaMvnfx6-76" target="7hVWozrfAJZLWaMvnfx6-75">
          <mxGeometry relative="1" as="geometry" />
        </mxCell>
        <mxCell id="7hVWozrfAJZLWaMvnfx6-76" value="" style="rounded=0;whiteSpace=wrap;html=1;align=right;" vertex="1" parent="1">
          <mxGeometry x="420" y="520" width="10" height="10" as="geometry" />
        </mxCell>
        <mxCell id="7hVWozrfAJZLWaMvnfx6-77" value="" style="edgeStyle=orthogonalEdgeStyle;rounded=0;orthogonalLoop=1;jettySize=auto;html=1;endArrow=none;endFill=0;entryX=0;entryY=0.5;entryDx=0;entryDy=0;dashed=1;" edge="1" parent="1" source="7hVWozrfAJZLWaMvnfx6-71" target="7hVWozrfAJZLWaMvnfx6-76">
          <mxGeometry relative="1" as="geometry">
            <mxPoint x="410" y="190.0344827586207" as="sourcePoint" />
            <mxPoint x="427.79999999999995" y="526.1600000000001" as="targetPoint" />
            <Array as="points">
              <mxPoint x="420" y="190" />
              <mxPoint x="420" y="357" />
              <mxPoint x="410" y="357" />
              <mxPoint x="410" y="525" />
            </Array>
          </mxGeometry>
        </mxCell>
        <mxCell id="7hVWozrfAJZLWaMvnfx6-80" value="" style="rounded=0;orthogonalLoop=1;jettySize=auto;html=1;endArrow=none;endFill=0;exitX=0;exitY=0.5;exitDx=0;exitDy=0;startArrow=none;" edge="1" target="7hVWozrfAJZLWaMvnfx6-82" parent="1" source="7hVWozrfAJZLWaMvnfx6-83">
          <mxGeometry relative="1" as="geometry">
            <mxPoint x="390" y="255" as="sourcePoint" />
            <Array as="points">
              <mxPoint x="165" y="190" />
            </Array>
          </mxGeometry>
        </mxCell>
        <mxCell id="7hVWozrfAJZLWaMvnfx6-81" value="" style="rounded=0;orthogonalLoop=1;jettySize=auto;html=1;endArrow=halfCircle;endFill=0;entryX=0.5;entryY=0.5;entryDx=0;entryDy=0;endSize=6;strokeWidth=1;startArrow=none;" edge="1" target="7hVWozrfAJZLWaMvnfx6-82" parent="1">
          <mxGeometry relative="1" as="geometry">
            <mxPoint x="165" y="255" as="sourcePoint" />
            <Array as="points" />
          </mxGeometry>
        </mxCell>
        <mxCell id="7hVWozrfAJZLWaMvnfx6-82" value="" style="ellipse;whiteSpace=wrap;html=1;fontFamily=Helvetica;fontSize=12;fontColor=#000000;align=center;strokeColor=#000000;fillColor=#ffffff;points=[];aspect=fixed;resizable=0;" vertex="1" parent="1">
          <mxGeometry x="160" y="220" width="10" height="10" as="geometry" />
        </mxCell>
        <mxCell id="7hVWozrfAJZLWaMvnfx6-83" value="" style="rounded=0;whiteSpace=wrap;html=1;align=right;" vertex="1" parent="1">
          <mxGeometry x="170" y="185" width="10" height="10" as="geometry" />
        </mxCell>
        <mxCell id="7hVWozrfAJZLWaMvnfx6-84" value="" style="rounded=0;orthogonalLoop=1;jettySize=auto;html=1;endArrow=none;endFill=0;exitX=0;exitY=0.5;exitDx=0;exitDy=0;" edge="1" parent="1" source="7hVWozrfAJZLWaMvnfx6-21" target="7hVWozrfAJZLWaMvnfx6-83">
          <mxGeometry relative="1" as="geometry">
            <mxPoint x="180" y="190" as="sourcePoint" />
            <mxPoint x="165" y="220" as="targetPoint" />
            <Array as="points" />
          </mxGeometry>
        </mxCell>
        <mxCell id="7hVWozrfAJZLWaMvnfx6-85" value="" style="rounded=0;whiteSpace=wrap;html=1;align=right;" vertex="1" parent="1">
          <mxGeometry x="170" y="250" width="10" height="10" as="geometry" />
        </mxCell>
        <mxCell id="7hVWozrfAJZLWaMvnfx6-87" value="" style="rounded=0;orthogonalLoop=1;jettySize=auto;html=1;endArrow=none;endFill=0;endSize=6;strokeWidth=1;" edge="1" parent="1">
          <mxGeometry relative="1" as="geometry">
            <mxPoint x="165" y="255" as="sourcePoint" />
            <mxPoint x="165" y="255" as="targetPoint" />
            <Array as="points">
              <mxPoint x="165" y="255" />
            </Array>
          </mxGeometry>
        </mxCell>
      </root>
    </mxGraphModel>
  </diagram>
</mxfile>
